<?xml version="1.0" standalone="no"?>
<!DOCTYPE svg PUBLIC "-//W3C//DTD SVG 20010904//EN"
 "http://www.w3.org/TR/2001/REC-SVG-20010904/DTD/svg10.dtd">
<svg version="1.0" xmlns="http://www.w3.org/2000/svg"
 width="160.000000pt" height="60.000000pt" viewBox="0 0 160.000000 60.000000"
 preserveAspectRatio="xMidYMid meet">

<g transform="translate(0.000000,60.000000) scale(0.100000,-0.100000)"
fill="#000000" stroke="none">
<path d="M1027 426 c-21 -6 -42 -18 -47 -26 -7 -12 -12 -12 -22 -2 -7 7 -37
12 -70 12 l-59 0 3 -97 3 -98 53 1 c35 1 59 7 72 19 25 22 26 61 3 74 -10 5
-15 13 -11 16 4 4 25 -3 47 -16 38 -21 42 -21 59 -6 10 9 21 17 23 17 3 0 2
-24 -2 -52 -3 -29 -6 -54 -5 -54 0 -1 23 5 49 13 34 10 50 21 57 38 5 14 15
25 22 25 59 1 29 71 -50 118 -58 35 -68 36 -125 18z m-99 -68 c4 -19 -35 -35
-50 -20 -6 6 -8 18 -4 27 8 21 50 16 54 -7z m5 -72 c7 -19 -12 -36 -40 -36
-18 0 -23 6 -23 25 0 21 5 25 29 25 16 0 31 -6 34 -14z"/>
<path d="M45 385 c-20 -19 -25 -34 -25 -72 1 -76 40 -110 117 -98 l44 6 -3 52
-3 52 -37 3 c-33 3 -38 0 -38 -17 0 -14 6 -21 20 -21 13 0 20 -7 20 -20 0 -28
-55 -28 -70 -1 -31 59 4 118 65 108 30 -5 35 -3 35 14 0 16 -7 19 -50 19 -41
0 -56 -5 -75 -25z"/>
<path d="M265 398 c-2 -7 -18 -50 -34 -95 -17 -46 -29 -83 -28 -84 26 -9 39
-4 47 17 8 19 17 24 45 24 28 0 37 -5 45 -24 8 -21 21 -26 47 -17 2 1 -12 43
-30 94 -30 83 -36 92 -60 95 -16 2 -29 -2 -32 -10z m51 -95 c-2 -3 -13 -3 -23
-1 -17 3 -18 7 -10 38 l10 35 14 -34 c8 -18 12 -35 9 -38z"/>
<path d="M420 310 c0 -75 3 -99 13 -98 7 2 14 28 17 73 l5 70 19 -60 c20 -67
40 -95 56 -79 5 5 21 41 34 79 l25 70 0 -71 c1 -52 5 -73 15 -77 23 -9 26 2
26 100 l0 94 -32 -3 c-31 -3 -34 -6 -52 -70 -11 -38 -22 -68 -26 -68 -3 0 -14
32 -25 70 -18 65 -21 70 -47 70 l-28 0 0 -100z"/>
<path d="M680 309 l0 -100 52 3 c41 2 54 7 56 21 3 14 -4 17 -32 17 -32 0 -36
3 -36 25 0 22 4 25 36 25 28 0 35 3 32 18 -2 11 -13 17 -33 17 -23 1 -31 6
-33 23 -3 19 1 22 32 22 25 0 36 4 36 15 0 12 -13 15 -55 15 l-55 0 0 -101z"/>
<path d="M1247 362 l26 -47 -26 -42 c-31 -49 -33 -60 -11 -60 9 0 26 15 38 34
11 18 24 33 28 33 3 0 15 -15 25 -33 13 -21 28 -33 41 -33 12 0 22 2 22 4 0 2
-13 23 -30 47 -16 24 -30 46 -30 50 0 4 14 26 30 51 l31 44 -25 0 c-18 0 -30
-9 -41 -30 -19 -37 -26 -37 -47 0 -10 18 -25 30 -38 30 -19 0 -19 -2 7 -48z"/>
<path d="M1420 316 c0 -52 4 -97 9 -100 5 -3 31 -3 57 1 66 9 94 38 94 98 0
67 -31 95 -105 95 l-55 0 0 -94z m104 42 c31 -44 7 -108 -40 -108 -23 0 -24 3
-24 65 0 62 1 65 24 65 14 0 32 -10 40 -22z"/>
</g>
</svg>
